<svg version="1.1" xmlns="http://www.w3.org/2000/svg" fill="white" viewBox="200 149.95 774.27 925.03">  <path d="m510.91 185.38 135.8 226.35-144.95 193.3c-0.55078 0.70312-0.25 1.6523-0.65234 2.4023-0.59766 1.25-1.0977 2.25-1.25 3.5977-0.046875 0.55078-0.59766 0.90234-0.59766 1.4531 0 0.34766 0.34766 0.54688 0.34766 0.89844 0.10156 1.1484 0.70312 2 1.0508 3.0508 0.30078 0.84766-0.097656 1.6992 0.40234 2.5l145.65 242.8-134.05 178.75-285.9-452.6zm294.6 414.6h-268.75l131.25-175h268.75zm-136.65 250-135.05-225h270.85l135.05 225zm305.05 11.648c-0.097656-1.1484-0.64844-2-1.0508-3.0508-0.29688-0.84766 0.10156-1.6992-0.39844-2.5l-145.65-242.8 144.95-193.3c0.55078-0.70312 0.30078-1.6523 0.64844-2.4023 0.60156-1.25 1.1016-2.25 1.25-3.5977 0.050782-0.55078 0.60156-0.90234 0.60156-1.5 0-0.30078-0.35156-0.5-0.35156-0.85156-0.097656-1.1484-0.64844-2-1.0508-3.0508-0.29688-0.84766 0.10156-1.6992-0.39844-2.5l-150-250c-0.25-0.5-0.89844-0.5-1.25-0.89844-1-1.3516-2.25-2-3.75-2.8008-1.3984-0.80078-2.6016-1.5508-4.25-1.75-0.5-0.10156-0.85156-0.64844-1.4492-0.64844h-300c-0.40234 0-0.60156 0.39844-1 0.44922-1.1523 0.097657-2 0.59766-3.1016 1-0.80078 0.30078-1.5977-0.10156-2.3008 0.34766-0.5 0.30078-0.54688 0.95312-0.94922 1.3008-0.75 0.55078-1.3477 0.94922-1.8984 1.6523-0.25 0.29688-0.75 0.25-0.94922 0.54688l-300 425c-0.5 0.75-0.20312 1.6523-0.55078 2.4023-0.65234 1.5508-0.94922 2.8477-1 4.5508-0.050781 1.6484 0.14844 2.9492 0.75 4.4492 0.30078 0.84766-0.050781 1.75 0.44922 2.5l300 475c0.35156 0.55078 0.94922 0.75 1.3516 1.25 0.39844 0.5 0.75 0.84766 1.1992 1.3008 0.30078 0.19922 0.25 0.59766 0.5 0.79688 0.25 0.15234 0.55078 0.10156 0.80078 0.25 2 1.3008 4.2969 2.2031 6.6992 2.2031h300c3.8477 0 6.9492-1.9023 9.25-4.6016 0.19922-0.25 0.55078-0.14844 0.75-0.39844l150-200c0.55078-0.70312 0.30078-1.6523 0.64844-2.4023 0.60156-1.25 1.1016-2.25 1.25-3.5977 0.050782-0.55078 0.60156-0.90234 0.60156-1.5 0-0.30078-0.35156-0.5-0.35156-0.85156z" fill-rule="evenodd"></path> </svg>